<svg width="500" height="700" viewBox="0 0 500 700" fill="none" xmlns="http://www.w3.org/2000/svg">
<rect x="3" y="3" width="494" height="694" rx="47" fill="white" stroke="black" stroke-width="6"/>
<path d="M47.7031 122.609C45.3594 122.609 43.8125 121.25 43.8125 119.094C43.8125 118.156 44.0469 117.266 44.4219 116.141L63.6875 62.2812C64.8594 59 66.5 57.5 69.5 57.5C72.5 57.5 74.1406 59 75.3125 62.2812L94.5781 116.141C94.9531 117.172 95.1875 118.156 95.1875 119.047C95.1875 121.25 93.6406 122.609 91.25 122.609C89 122.609 87.7344 121.531 86.8438 118.766L81.4531 102.781H57.5L52.1094 118.766C51.2188 121.578 49.9531 122.609 47.7031 122.609ZM59.7031 96.1719H79.25L69.6406 67.6719H69.3125L59.7031 96.1719ZM36.3125 211.781C36.3125 196.031 56.8438 189.281 65.2812 172.5C66.125 170.859 67.3906 169.594 69.5 169.594C71.6562 169.594 72.875 170.859 73.7188 172.5C82.1562 189.281 102.688 196.031 102.688 211.781C102.688 220.172 96.0781 226.781 87.6875 226.781C83.0938 226.781 78.2188 225.328 76.25 221.109H75.875C75.6875 225.75 81.125 229.5 82.9062 231.422C85.625 234.188 84.0312 238.219 80.5625 238.219H58.4375C54.9688 238.219 53.4219 234.188 56.0938 231.422C57.9219 229.5 63.3125 225.75 63.1719 221.109H62.75C60.8281 225.328 55.9062 226.781 51.3125 226.781C42.9219 226.781 36.3125 220.172 36.3125 211.781Z" fill="black"/>
<path d="M452.297 577.391C454.641 577.391 456.188 578.75 456.188 580.906C456.188 581.844 455.953 582.734 455.578 583.859L436.312 637.719C435.141 641 433.5 642.5 430.5 642.5C427.5 642.5 425.859 641 424.688 637.719L405.422 583.859C405.047 582.828 404.812 581.844 404.812 580.953C404.812 578.75 406.359 577.391 408.75 577.391C411 577.391 412.266 578.469 413.156 581.234L418.547 597.219H442.5L447.891 581.234C448.781 578.422 450.047 577.391 452.297 577.391ZM440.297 603.828H420.75L430.359 632.328H430.688L440.297 603.828ZM463.688 488.219C463.688 503.969 443.156 510.719 434.719 527.5C433.875 529.141 432.609 530.406 430.5 530.406C428.344 530.406 427.125 529.141 426.281 527.5C417.844 510.719 397.312 503.969 397.312 488.219C397.312 479.828 403.922 473.219 412.312 473.219C416.906 473.219 421.781 474.672 423.75 478.891H424.125C424.312 474.25 418.875 470.5 417.094 468.578C414.375 465.812 415.969 461.781 419.438 461.781H441.562C445.031 461.781 446.578 465.812 443.906 468.578C442.078 470.5 436.688 474.25 436.828 478.891H437.25C439.172 474.672 444.094 473.219 448.688 473.219C457.078 473.219 463.688 479.828 463.688 488.219Z" fill="black"/>
<path d="M183.625 367.562C183.625 336.062 224.688 322.562 241.562 289C243.25 285.719 245.781 283.188 250 283.188C254.312 283.188 256.75 285.719 258.438 289C275.312 322.562 316.375 336.062 316.375 367.562C316.375 384.344 303.156 397.562 286.375 397.562C277.188 397.562 267.438 394.656 263.5 386.219H262.75C262.375 395.5 273.25 403 276.812 406.844C282.25 412.375 279.062 420.438 272.125 420.438H227.875C220.938 420.438 217.844 412.375 223.188 406.844C226.844 403 237.625 395.5 237.344 386.219H236.5C232.656 394.656 222.812 397.562 213.625 397.562C196.844 397.562 183.625 384.344 183.625 367.562Z" fill="black"/>
</svg>
