<svg width="500" height="700" viewBox="0 0 500 700" fill="none" xmlns="http://www.w3.org/2000/svg">
<rect x="3" y="3" width="494" height="694" rx="47" fill="white" stroke="black" stroke-width="6"/>
<path d="M47.2031 122.609C44.8594 122.609 43.3125 121.25 43.3125 119.094C43.3125 118.156 43.5469 117.266 43.9219 116.141L63.1875 62.2812C64.3594 59 66 57.5 69 57.5C72 57.5 73.6406 59 74.8125 62.2812L94.0781 116.141C94.4531 117.172 94.6875 118.156 94.6875 119.047C94.6875 121.25 93.1406 122.609 90.75 122.609C88.5 122.609 87.2344 121.531 86.3438 118.766L80.9531 102.781H57L51.6094 118.766C50.7188 121.578 49.4531 122.609 47.2031 122.609ZM59.2031 96.1719H78.75L69.1406 67.6719H68.8125L59.2031 96.1719ZM35.625 211.781C35.625 203.25 41.9531 196.078 50.4844 196.078C53.6719 196.078 56.9062 197.156 59.4375 199.078C55.2656 195.656 53.6719 191.297 53.6719 187.125C53.6719 178.734 60.5156 171.938 69 171.938C77.4375 171.938 84.2812 178.734 84.2812 187.125C84.2812 191.297 82.6875 195.656 78.5625 199.078C81.0938 197.156 84.2812 196.078 87.4688 196.078C96 196.078 102.328 203.25 102.328 211.781C102.328 220.172 95.5781 226.781 87.1875 226.781C82.5469 226.781 77.6719 225.328 75.7031 221.109H75.3281C75.1406 225.75 80.5781 229.5 82.4062 231.422C85.0781 234.188 83.5312 238.219 80.0625 238.219H57.9375C54.4219 238.219 52.875 234.188 55.5469 231.422C57.375 229.5 62.8125 225.75 62.625 221.109H62.25C60.2812 225.328 55.4062 226.781 50.7656 226.781C42.375 226.781 35.625 220.172 35.625 211.781Z" fill="black"/>
<path d="M452.797 577.391C455.141 577.391 456.688 578.75 456.688 580.906C456.688 581.844 456.453 582.734 456.078 583.859L436.812 637.719C435.641 641 434 642.5 431 642.5C428 642.5 426.359 641 425.188 637.719L405.922 583.859C405.547 582.828 405.312 581.844 405.312 580.953C405.312 578.75 406.859 577.391 409.25 577.391C411.5 577.391 412.766 578.469 413.656 581.234L419.047 597.219H443L448.391 581.234C449.281 578.422 450.547 577.391 452.797 577.391ZM440.797 603.828H421.25L430.859 632.328H431.188L440.797 603.828ZM464.375 488.219C464.375 496.75 458.047 503.922 449.516 503.922C446.328 503.922 443.094 502.844 440.562 500.922C444.734 504.344 446.328 508.703 446.328 512.875C446.328 521.266 439.484 528.062 431 528.062C422.562 528.062 415.719 521.266 415.719 512.875C415.719 508.703 417.312 504.344 421.438 500.922C418.906 502.844 415.719 503.922 412.531 503.922C404 503.922 397.672 496.75 397.672 488.219C397.672 479.828 404.422 473.219 412.812 473.219C417.453 473.219 422.328 474.672 424.297 478.891H424.672C424.859 474.25 419.422 470.5 417.594 468.578C414.922 465.812 416.469 461.781 419.938 461.781H442.062C445.578 461.781 447.125 465.812 444.453 468.578C442.625 470.5 437.188 474.25 437.375 478.891H437.75C439.719 474.672 444.594 473.219 449.234 473.219C457.625 473.219 464.375 479.828 464.375 488.219Z" fill="black"/>
<path d="M183.75 367.562C183.75 350.5 196.406 336.156 213.469 336.156C219.844 336.156 226.312 338.312 231.375 342.156C223.031 335.312 219.844 326.594 219.844 318.25C219.844 301.469 233.531 287.875 250.5 287.875C267.375 287.875 281.062 301.469 281.062 318.25C281.062 326.594 277.875 335.312 269.625 342.156C274.688 338.312 281.062 336.156 287.438 336.156C304.5 336.156 317.156 350.5 317.156 367.562C317.156 384.344 303.656 397.562 286.875 397.562C277.594 397.562 267.844 394.656 263.906 386.219H263.156C262.781 395.5 273.656 403 277.312 406.844C282.656 412.375 279.562 420.438 272.625 420.438H228.375C221.344 420.438 218.25 412.375 223.594 406.844C227.25 403 238.125 395.5 237.75 386.219H237C233.062 394.656 223.312 397.562 214.031 397.562C197.25 397.562 183.75 384.344 183.75 367.562Z" fill="black"/>
</svg>
