<svg width="500" height="700" viewBox="0 0 500 700" fill="none" xmlns="http://www.w3.org/2000/svg">
<rect x="3" y="3" width="494" height="694" rx="47" fill="white" stroke="black" stroke-width="6"/>
<path d="M47.2031 122.609C44.8594 122.609 43.3125 121.25 43.3125 119.094C43.3125 118.156 43.5469 117.266 43.9219 116.141L63.1875 62.2812C64.3594 59 66 57.5 69 57.5C72 57.5 73.6406 59 74.8125 62.2812L94.0781 116.141C94.4531 117.172 94.6875 118.156 94.6875 119.047C94.6875 121.25 93.1406 122.609 90.75 122.609C88.5 122.609 87.2344 121.531 86.3438 118.766L80.9531 102.781H57L51.6094 118.766C50.7188 121.578 49.4531 122.609 47.2031 122.609ZM59.2031 96.1719H78.75L69.1406 67.6719H68.8125L59.2031 96.1719ZM69 241.266C66.8438 241.266 65.7188 239.812 63.5625 236.859L42.9375 209.438C41.8594 207.984 41.25 206.531 41.25 204.984C41.25 203.438 41.8594 201.984 42.9375 200.531L63.5625 173.109C65.7188 170.156 66.8438 168.703 69 168.703C71.1562 168.703 72.2812 170.156 74.4844 173.109L95.0625 200.531C96.1406 201.984 96.75 203.438 96.75 204.984C96.75 206.531 96.1406 207.984 95.0625 209.438L74.4844 236.859C72.2812 239.812 71.1562 241.266 69 241.266Z" fill="#FF0000"/>
<path d="M452.797 577.391C455.141 577.391 456.688 578.75 456.688 580.906C456.688 581.844 456.453 582.734 456.078 583.859L436.812 637.719C435.641 641 434 642.5 431 642.5C428 642.5 426.359 641 425.188 637.719L405.922 583.859C405.547 582.828 405.312 581.844 405.312 580.953C405.312 578.75 406.859 577.391 409.25 577.391C411.5 577.391 412.766 578.469 413.656 581.234L419.047 597.219H443L448.391 581.234C449.281 578.422 450.547 577.391 452.797 577.391ZM440.797 603.828H421.25L430.859 632.328H431.188L440.797 603.828ZM431 458.734C433.156 458.734 434.281 460.188 436.438 463.141L457.062 490.562C458.141 492.016 458.75 493.469 458.75 495.016C458.75 496.562 458.141 498.016 457.062 499.469L436.438 526.891C434.281 529.844 433.156 531.297 431 531.297C428.844 531.297 427.719 529.844 425.516 526.891L404.938 499.469C403.859 498.016 403.25 496.562 403.25 495.016C403.25 493.469 403.859 492.016 404.938 490.562L425.516 463.141C427.719 460.188 428.844 458.734 431 458.734Z" fill="#FF0000"/>
<path d="M250 426.531C245.688 426.531 243.438 423.625 239.125 417.719L197.875 362.875C195.719 359.969 194.5 357.062 194.5 353.969C194.5 350.875 195.719 347.969 197.875 345.062L239.125 290.219C243.438 284.312 245.688 281.406 250 281.406C254.312 281.406 256.562 284.312 260.969 290.219L302.125 345.062C304.281 347.969 305.5 350.875 305.5 353.969C305.5 357.062 304.281 359.969 302.125 362.875L260.969 417.719C256.562 423.625 254.312 426.531 250 426.531Z" fill="#FF0000"/>
</svg>
