<svg width="500" height="700" viewBox="0 0 500 700" fill="none" xmlns="http://www.w3.org/2000/svg">
<rect x="3" y="3" width="494" height="694" rx="47" fill="white" stroke="black" stroke-width="6"/>
<path d="M47.2031 122.609C44.8594 122.609 43.3125 121.25 43.3125 119.094C43.3125 118.156 43.5469 117.266 43.9219 116.141L63.1875 62.2812C64.3594 59 66 57.5 69 57.5C72 57.5 73.6406 59 74.8125 62.2812L94.0781 116.141C94.4531 117.172 94.6875 118.156 94.6875 119.047C94.6875 121.25 93.1406 122.609 90.75 122.609C88.5 122.609 87.2344 121.531 86.3438 118.766L80.9531 102.781H57L51.6094 118.766C50.7188 121.578 49.4531 122.609 47.2031 122.609ZM59.2031 96.1719H78.75L69.1406 67.6719H68.8125L59.2031 96.1719ZM69 238.734C68.1562 238.734 66.8906 238.125 66 237.562C46.1719 224.953 33.8906 210.188 33.8906 195.188C33.8906 182.484 42.6094 173.578 53.7188 173.578C60.7031 173.578 65.8125 177.422 69 183.188C72.2344 177.375 77.2969 173.578 84.2812 173.578C95.3438 173.578 104.062 182.484 104.062 195.188C104.062 210.188 91.8281 224.953 72 237.562C71.0625 238.125 69.8438 238.734 69 238.734Z" fill="#FF0000"/>
<path d="M452.797 577.391C455.141 577.391 456.688 578.75 456.688 580.906C456.688 581.844 456.453 582.734 456.078 583.859L436.812 637.719C435.641 641 434 642.5 431 642.5C428 642.5 426.359 641 425.188 637.719L405.922 583.859C405.547 582.828 405.312 581.844 405.312 580.953C405.312 578.75 406.859 577.391 409.25 577.391C411.5 577.391 412.766 578.469 413.656 581.234L419.047 597.219H443L448.391 581.234C449.281 578.422 450.547 577.391 452.797 577.391ZM440.797 603.828H421.25L430.859 632.328H431.188L440.797 603.828ZM431 461.266C431.844 461.266 433.109 461.875 434 462.438C453.828 475.047 466.109 489.812 466.109 504.812C466.109 517.516 457.391 526.422 446.281 526.422C439.297 526.422 434.188 522.578 431 516.812C427.766 522.625 422.703 526.422 415.719 526.422C404.656 526.422 395.938 517.516 395.938 504.812C395.938 489.812 408.172 475.047 428 462.438C428.938 461.875 430.156 461.266 431 461.266Z" fill="#FF0000"/>
<path d="M250 421.469C248.312 421.469 245.781 420.25 244 419.125C204.344 393.906 179.781 364.375 179.781 334.375C179.781 308.969 197.219 291.156 219.438 291.156C233.406 291.156 243.625 298.844 250 310.375C256.469 298.75 266.594 291.156 280.562 291.156C302.688 291.156 320.125 308.969 320.125 334.375C320.125 364.375 295.656 393.906 256 419.125C254.125 420.25 251.688 421.469 250 421.469Z" fill="#FF0000"/>
</svg>
