<svg width="500" height="700" viewBox="0 0 500 700" fill="none" xmlns="http://www.w3.org/2000/svg">
<rect width="500" height="700" rx="50" fill="black"/>
<path d="M71.8672 48.0625C71.8672 45.2969 73.2031 43.7734 75.6875 43.7734C78.1953 43.7734 79.6016 45.3203 79.6016 48.0625V64.9609C79.6016 72.4844 75.3594 76.7031 67.8125 76.7031C63.9453 76.7031 60.8516 75.625 59.0469 73.6797C57.9688 72.5781 57.3594 71.1484 57.3594 69.6719C57.3594 67.6328 58.6719 66.3203 60.5703 66.3203C61.9062 66.3203 62.7266 66.9062 63.5703 67.8438C64.6484 69.1328 65.9141 70.1172 67.9297 70.1172C70.5312 70.1172 71.8672 68.5938 71.8672 65.0078V48.0625ZM55.3672 119.055V115.234C55.3672 106 60.6172 100.422 69.5 100.422C78.3828 100.422 83.6094 106.023 83.6094 115.234V119.055C83.6094 128.195 78.3828 133.703 69.5 133.703C60.5703 133.703 55.3672 128.172 55.3672 119.055ZM63.125 115.188V119.055C63.125 124.281 65.4922 127.375 69.5 127.375C73.4844 127.375 75.8516 124.281 75.8516 119.055V115.188C75.8516 109.891 73.4609 106.75 69.5 106.75C65.4922 106.75 63.125 109.891 63.125 115.188ZM79.6719 190.188C78.2188 190.188 77.0469 189.461 75.8281 187.773L68.0469 177.062L65.0938 180.062V186.062C65.0938 188.734 63.7344 190.234 61.2969 190.234C58.7891 190.234 57.3359 188.688 57.3359 186.062V161.945C57.3359 159.273 58.7188 157.773 61.2031 157.773C63.6875 157.773 65.0938 159.297 65.0938 161.945V171.156H65.5156L76.2734 159.461C77.3281 158.312 78.2188 157.82 79.3203 157.82C81.2422 157.82 82.7188 159.32 82.7188 161.219C82.7188 162.18 82.3438 162.906 81.3125 164.031L73.7891 172.164L81.8047 182.992C83.0469 184.656 83.3984 185.453 83.3984 186.531C83.3984 188.688 81.875 190.188 79.6719 190.188ZM59.1875 242.57V219.438C59.1875 216.578 60.7578 215.008 63.6875 215.008H78.1953C79.9766 215.008 81.2422 216.273 81.2422 218.102C81.2422 219.906 79.9766 221.148 78.1953 221.148H66.8516V228.062H77.6328C79.2969 228.062 80.4219 229.234 80.4219 230.922C80.4219 232.633 79.2969 233.734 77.6328 233.734H66.8516V240.859H78.1016C79.9766 240.859 81.2422 242.078 81.2422 243.93C81.2422 245.805 79.9766 247 78.0781 247H63.6875C60.7578 247 59.1875 245.453 59.1875 242.57ZM65.1641 300.062C65.1641 302.734 63.8047 304.234 61.3438 304.234C58.8359 304.234 57.4062 302.711 57.4062 300.062V277.609C57.4062 273.812 59.1172 272.008 62.7969 272.008H71.2578C78.4297 272.008 82.8359 275.781 82.8359 281.922C82.8359 285.953 80.8672 289.117 77.3984 290.734L81.5703 298.117C81.9922 298.844 82.2031 299.734 82.2031 300.555C82.2031 302.688 80.6094 304.188 78.3594 304.188C76.3203 304.188 75.2422 303.344 73.9766 300.859L69.7578 292.633H65.1641V300.062ZM65.1641 287.148H70.2031C73.2734 287.148 75.1484 285.531 75.1484 282.625C75.1484 279.766 73.2969 278.148 70.2031 278.148H65.1641V287.148Z" fill="white"/>
<path d="M428.133 651.938C428.133 654.703 426.797 656.227 424.312 656.227C421.805 656.227 420.398 654.68 420.398 651.938V635.039C420.398 627.516 424.641 623.297 432.188 623.297C436.055 623.297 439.148 624.375 440.953 626.32C442.031 627.422 442.641 628.852 442.641 630.328C442.641 632.367 441.328 633.68 439.43 633.68C438.094 633.68 437.273 633.094 436.43 632.156C435.352 630.867 434.086 629.883 432.07 629.883C429.469 629.883 428.133 631.406 428.133 634.992V651.938ZM444.633 580.945V584.766C444.633 594 439.383 599.578 430.5 599.578C421.617 599.578 416.391 593.977 416.391 584.766V580.945C416.391 571.805 421.617 566.297 430.5 566.297C439.43 566.297 444.633 571.828 444.633 580.945ZM436.875 584.812V580.945C436.875 575.719 434.508 572.625 430.5 572.625C426.516 572.625 424.148 575.719 424.148 580.945V584.812C424.148 590.109 426.539 593.25 430.5 593.25C434.508 593.25 436.875 590.109 436.875 584.812ZM420.328 509.812C421.781 509.812 422.953 510.539 424.172 512.227L431.953 522.938L434.906 519.938V513.938C434.906 511.266 436.266 509.766 438.703 509.766C441.211 509.766 442.664 511.312 442.664 513.938V538.055C442.664 540.727 441.281 542.227 438.797 542.227C436.312 542.227 434.906 540.703 434.906 538.055V528.844H434.484L423.727 540.539C422.672 541.688 421.781 542.18 420.68 542.18C418.758 542.18 417.281 540.68 417.281 538.781C417.281 537.82 417.656 537.094 418.688 535.969L426.211 527.836L418.195 517.008C416.953 515.344 416.602 514.547 416.602 513.469C416.602 511.312 418.125 509.812 420.328 509.812ZM440.812 457.43V480.562C440.812 483.422 439.242 484.992 436.312 484.992H421.805C420.023 484.992 418.758 483.727 418.758 481.898C418.758 480.094 420.023 478.852 421.805 478.852H433.148V471.938H422.367C420.703 471.938 419.578 470.766 419.578 469.078C419.578 467.367 420.703 466.266 422.367 466.266H433.148V459.141H421.898C420.023 459.141 418.758 457.922 418.758 456.07C418.758 454.195 420.023 453 421.922 453H436.312C439.242 453 440.812 454.547 440.812 457.43ZM434.836 399.938C434.836 397.266 436.195 395.766 438.656 395.766C441.164 395.766 442.594 397.289 442.594 399.938V422.391C442.594 426.188 440.883 427.992 437.203 427.992H428.742C421.57 427.992 417.164 424.219 417.164 418.078C417.164 414.047 419.133 410.883 422.602 409.266L418.43 401.883C418.008 401.156 417.797 400.266 417.797 399.445C417.797 397.312 419.391 395.812 421.641 395.812C423.68 395.812 424.758 396.656 426.023 399.141L430.242 407.367H434.836V399.938ZM434.836 412.852H429.797C426.727 412.852 424.852 414.469 424.852 417.375C424.852 420.234 426.703 421.852 429.797 421.852H434.836V412.852Z" fill="white"/>
<path d="M211.768 251.392C213.423 250.948 215.107 250.659 216.8 250.485V248.672C216.877 244.314 223.306 244.314 223.383 248.672V250.485C225.086 250.659 226.769 250.948 228.425 251.392C230.175 251.864 231.218 253.687 230.749 255.452C230.281 257.216 228.472 258.277 226.722 257.795C225.621 257.496 224.512 257.284 223.383 257.139V260.524C223.306 264.883 216.877 264.883 216.8 260.524V257.139C215.384 257.255 214.016 257.776 212.61 257.911C208.831 257.911 208.075 252.395 211.768 251.392ZM287.263 251.392C285.618 250.948 283.924 250.649 282.221 250.476V248.663C282.145 244.304 275.716 244.304 275.639 248.663V250.476C273.946 250.649 272.262 250.939 270.607 251.382C266.923 252.385 267.669 257.901 271.449 257.901C272.855 257.766 274.223 257.245 275.639 257.13V260.514C275.706 264.873 282.145 264.873 282.221 260.514V257.13C283.35 257.274 284.46 257.496 285.56 257.785C289.751 258.846 291.425 252.578 287.263 251.382L287.263 251.392ZM233.772 272.607C234.241 256.406 264.779 256.397 265.257 272.607C265.257 279.473 258.34 284.845 249.519 284.845C240.688 284.845 233.78 279.473 233.78 272.607H233.772ZM249.51 278.21C261.603 277.776 261.603 267.429 249.51 266.995C237.417 267.429 237.417 277.776 249.51 278.21ZM289.254 282.636C284.518 300.795 268.177 313.485 249.51 313.485C230.843 313.485 214.503 300.804 209.766 282.636C209.001 279.715 209.613 276.667 211.44 274.276C215.985 268.007 226.385 270.139 228.145 277.68C230.671 287.468 239.454 294.305 249.509 294.305C259.555 294.305 268.338 287.468 270.873 277.68C271.954 273.485 275.734 270.544 280.058 270.544C286.143 270.38 290.955 276.754 289.252 282.627L289.254 282.636ZM277.247 279.358C269.584 307.97 229.457 307.98 221.794 279.358C221.459 278.085 220.301 277.188 218.971 277.188C216.656 277.362 215.776 279.078 216.14 280.949C225.42 315.269 273.602 315.289 282.892 280.949C283.858 277.275 278.415 275.52 277.247 279.358ZM339.042 181.293C334.852 181.293 331.264 178.68 329.771 174.986C316.491 179.914 307.642 201.631 304.781 209.645C307.374 211.207 309.144 214.042 309.144 217.302V227.803C309.144 231.4 307.001 234.515 303.92 235.923V239.887C324.701 243.86 324.767 273.523 303.872 277.478C298.878 347.537 200.161 347.478 195.196 277.478C174.406 273.562 174.272 243.861 195.149 239.887V235.923C192.068 234.506 189.925 231.391 189.925 227.803V217.302C189.925 214.042 191.685 211.217 194.287 209.645C191.427 201.641 182.577 179.914 169.298 174.986C167.805 178.68 164.217 181.293 160.027 181.293C154.497 181.293 150 176.761 150 171.187C150 160.772 163.921 157.32 168.752 166.307C177.659 162.845 201.665 157.676 231.475 185.015L244.783 158.032C241.109 156.239 238.564 152.459 238.564 148.071C238.564 141.966 243.491 137 249.548 137C255.604 137 260.531 141.966 260.531 148.071C260.531 152.449 257.986 156.239 254.312 158.032L267.621 185.015C297.433 157.667 321.448 162.836 330.344 166.307C332.056 163.202 335.299 161.081 339.069 161.081C352.368 161.514 352.253 180.898 339.069 181.293L339.042 181.293ZM198.793 214.986C197.52 214.986 196.477 216.028 196.477 217.301V227.802C196.477 229.017 197.425 230.02 198.63 230.107C198.793 230.146 300.13 230.097 300.284 230.117C301.356 230.136 302.609 229.094 302.551 227.802V217.301C302.551 216.028 301.518 214.986 300.236 214.986H198.783L198.793 214.986ZM227.285 208.352H249.816L233.58 195.603L227.285 208.352ZM271.744 208.352L265.659 196.018L239.942 182.681L236.564 189.537L260.521 208.352H271.744ZM260.713 185.998L249.509 163.288L242.87 176.75L260.713 186.008L260.713 185.998ZM249.509 152.518C255.317 152.363 255.317 143.8 249.509 143.646C243.702 143.8 243.702 152.363 249.509 152.518ZM159.987 167.715C155.461 167.793 155.461 174.572 159.987 174.659C164.512 174.582 164.512 167.802 159.987 167.715ZM200.791 208.353H219.926L228.383 191.207C205.087 169.152 186.058 168.815 176.04 171.004C189.98 179.644 198.314 201.139 200.791 208.353ZM195.118 270.688V246.666C189.865 248.026 185.904 253.166 186 258.672C186 264.41 189.875 269.241 195.118 270.688ZM297.318 275.48V236.744H201.701V275.48C201.701 302.049 223.151 323.67 249.511 323.67C275.87 323.67 297.32 302.049 297.32 275.48H297.318ZM303.9 246.676V270.697C309.162 269.347 313.104 264.169 313.018 258.682C313.018 252.953 309.143 248.122 303.9 246.685V246.676ZM322.987 171.015C312.97 168.826 293.941 169.163 270.644 191.218L279.102 208.363H298.236C300.714 201.15 309.049 179.655 322.987 171.015ZM339.041 167.726C334.516 167.803 334.516 174.583 339.041 174.67C343.567 174.592 343.567 167.813 339.041 167.726Z" fill="white"/>
<path d="M287.232 448.608C285.577 449.052 283.893 449.341 282.2 449.515V451.328C282.123 455.686 275.694 455.686 275.617 451.328V449.515C273.914 449.341 272.231 449.052 270.575 448.608C268.825 448.136 267.782 446.313 268.251 444.548C268.719 442.784 270.528 441.723 272.278 442.205C273.379 442.504 274.488 442.716 275.617 442.861V439.476C275.694 435.117 282.123 435.117 282.2 439.476V442.861C283.616 442.745 284.984 442.224 286.39 442.089C290.169 442.089 290.925 447.605 287.232 448.608ZM211.737 448.608C213.382 449.052 215.076 449.351 216.779 449.524V451.337C216.855 455.696 223.284 455.696 223.361 451.337V449.524C225.054 449.351 226.738 449.061 228.393 448.618C232.077 447.615 231.331 442.099 227.551 442.099C226.145 442.234 224.777 442.755 223.361 442.87V439.486C223.294 435.127 216.855 435.127 216.779 439.486V442.87C215.65 442.726 214.54 442.504 213.44 442.215C209.249 441.154 207.575 447.422 211.737 448.618L211.737 448.608ZM265.228 427.393C264.759 443.594 234.221 443.603 233.743 427.393C233.743 420.527 240.66 415.155 249.481 415.155C258.312 415.155 265.22 420.527 265.22 427.393H265.228ZM249.49 421.79C237.397 422.224 237.397 432.571 249.49 433.005C261.583 432.571 261.583 422.224 249.49 421.79ZM209.746 417.364C214.482 399.205 230.823 386.515 249.49 386.515C268.157 386.515 284.497 399.196 289.234 417.364C289.999 420.285 289.387 423.333 287.56 425.724C283.015 431.993 272.615 429.861 270.855 422.32C268.329 412.532 259.546 405.695 249.491 405.695C239.445 405.695 230.662 412.532 228.127 422.32C227.046 426.515 223.266 429.456 218.942 429.456C212.857 429.62 208.045 423.246 209.748 417.373L209.746 417.364ZM221.753 420.642C229.416 392.03 269.543 392.02 277.206 420.642C277.541 421.915 278.699 422.812 280.029 422.812C282.344 422.638 283.224 420.922 282.86 419.051C273.58 384.731 225.398 384.711 216.108 419.051C215.142 422.725 220.585 424.48 221.753 420.642ZM159.958 518.707C164.148 518.707 167.736 521.32 169.229 525.014C182.509 520.086 191.358 498.369 194.219 490.355C191.626 488.793 189.856 485.958 189.856 482.698V472.197C189.856 468.6 191.999 465.485 195.08 464.077V460.113C174.299 456.14 174.233 426.477 195.128 422.522C200.122 352.463 298.839 352.522 303.804 422.522C324.594 426.438 324.728 456.139 303.851 460.113V464.077C306.932 465.494 309.075 468.609 309.075 472.197V482.698C309.075 485.958 307.315 488.783 304.713 490.355C307.573 498.359 316.423 520.086 329.702 525.014C331.195 521.32 334.783 518.707 338.973 518.707C344.503 518.707 349 523.239 349 528.813C349 539.228 335.079 542.68 330.248 533.693C321.341 537.155 297.335 542.324 267.525 514.985L254.217 541.968C257.891 543.761 260.436 547.541 260.436 551.929C260.436 558.034 255.509 563 249.452 563C243.396 563 238.469 558.034 238.469 551.929C238.469 547.551 241.014 543.761 244.688 541.968L231.379 514.985C201.567 542.333 177.552 537.164 168.656 533.693C166.944 536.798 163.701 538.919 159.931 538.919C146.632 538.486 146.747 519.102 159.931 518.707L159.958 518.707ZM300.207 485.014C301.48 485.014 302.523 483.972 302.523 482.699V472.198C302.523 470.983 301.575 469.98 300.37 469.893C300.207 469.854 198.87 469.903 198.716 469.883C197.644 469.864 196.391 470.906 196.449 472.198V482.699C196.449 483.972 197.482 485.014 198.764 485.014H300.217L300.207 485.014ZM271.715 491.648H249.184L265.42 504.397L271.715 491.648ZM227.256 491.648L233.341 503.982L259.058 517.319L262.436 510.463L238.479 491.648H227.256ZM238.287 514.002L249.491 536.712L256.13 523.25L238.287 513.992L238.287 514.002ZM249.491 547.482C243.683 547.637 243.683 556.2 249.491 556.354C255.298 556.2 255.298 547.637 249.491 547.482ZM339.013 532.285C343.539 532.207 343.539 525.428 339.013 525.341C334.488 525.418 334.488 532.198 339.013 532.285ZM298.209 491.647H279.074L270.617 508.793C293.913 530.848 312.942 531.185 322.96 528.996C309.02 520.356 300.686 498.861 298.209 491.647ZM303.882 429.312V453.334C309.135 451.974 313.096 446.834 313 441.328C313 435.59 309.125 430.759 303.882 429.312ZM201.682 424.52L201.682 463.256H297.299V424.52C297.299 397.951 275.849 376.33 249.489 376.33C223.13 376.33 201.68 397.951 201.68 424.52H201.682ZM195.1 453.324L195.1 429.303C189.838 430.653 185.896 435.831 185.982 441.318C185.982 447.047 189.857 451.878 195.1 453.315V453.324ZM176.013 528.985C186.03 531.174 205.059 530.837 228.356 508.782L219.898 491.637H200.764C198.286 498.85 189.951 520.345 176.013 528.985ZM159.959 532.274C164.484 532.197 164.484 525.417 159.959 525.33C155.433 525.408 155.433 532.187 159.959 532.274Z" fill="white"/>
</svg>
